<svg version="1.1" xmlns="http://www.w3.org/2000/svg" xmlns:xlink="http://www.w3.org/1999/xlink" x="0px" y="0px" viewBox="0 0 381 379" enable-background="new 0 0 381 379" xml:space="preserve">
                    <g>
                        <path fill="#F6A40F" d="M179.2,59.4c0,0-22.3,11-25,12.3c-2.7,1.3,9.4,10.2,9.4,10.2l15.6-1.5c0,0,3.8-8.7,5.4-9.7
                            C186.2,69.6,179.2,59.4,179.2,59.4z"></path>
                        <g>
                            <g>
                                <path fill="#F6A40F" d="M336.8,258.5c-94.8,0-189.8,0-285.2,0c-0.2,1.8-0.5,3.6-0.5,5.3c0,20.7,0,41.3-0.1,62
                                    c0,3.9,0.3,6.6,4.6,8.7c5.5,2.6,6.7,8,5,13.6c-1.6,5.4-5.7,8.1-11.4,8.2c-12.1,0.4-21.8-9.2-21.9-22.5c-0.3-22-0.1-44.1-0.1-66.1
                                    c0-5.2,0.4-9.8-5.4-13.5c-2.6-1.7-3.3-8.2-2.7-12.2c0.9-5.6,5.9-7.7,11.5-7.7c19.3,0,38.6,0,57.9,0c88.4,0,176.8,0,265.2,0
                                    c1.8,0,3.7,0,5.5,0.1c5.7,0.2,9.5,3.3,11.1,8.6c1.5,5.1,0.1,9.9-4.6,12.6c-3.7,2.1-4.1,4.7-4.1,8.4c0.1,23,0.2,45.9,0,68.9
                                    c-0.1,13.1-7.9,22-19.7,23.3c-6.5,0.7-11.9-2.3-13.7-7.8c-1.9-5.7,0.3-10.9,5.8-14.6c1.6-1.1,3.5-3.2,3.5-4.8
                                    c0.2-23,0.1-45.9,0-68.9C337.5,259.7,337.1,259.3,336.8,258.5z"></path>
                                <path fill="#F6A40F" d="M159.7,167.4c-0.7,2.7-1.9,8.1-3.4,14.2c-18.4,0-38.1,0-58.3,0c-0.1-11.5-0.2-22.3,5.5-32.8
                                    c11.9-21.7,22.9-43.9,34.3-65.9c7-13.5,15.9-15.1,29.4-8.2c19.9,10.2,34,26.2,46.6,43.8c5.2,7.2,11.4,12.9,19.1,17.4
                                    c10.4,6.1,20.5,12.9,30.5,20.8c-6,0-12,0.2-18-0.1c-1.1-0.1-2.1-2-3.2-3c-4.6-3.9-9.2-7.9-14-11.6c-1.8-1.3-4.1-1.9-6.3-2.8
                                    c-16.3-6.4-34.1-11.2-36.4-34c-0.9,0.6-1.7,1.2-2.6,1.7c2.1,10.2,4,20.4,6.4,30.6c0.3,1.4,3.2,2.3,5,3.1
                                    c9.9,4.2,19.9,8.3,29.7,12.6c7.8,3.4,10.6,9.2,7.8,15.7c-2.7,6.5-9.1,8.8-16.7,5.7c-13.4-5.5-26.5-11.3-39.9-16.8
                                    c-5.3-2.2-7.6-6.1-8.6-11.5c-2.2-12.3-4.7-24.5-8-36.6c-1,12.6-2.5,25.1-2.8,37.7C155.9,153.1,158,158.9,159.7,167.4z"></path>
                                <path fill="#F6A40F" d="M266.3,198.8c-28.2-2.8-56.4-5.5-86.3-8.4c3.8-4.4,6.4-7.9,9.5-10.7c1.1-1,3.8-1.1,5.4-0.5
                                    c4.8,1.6,9.4,3.7,14,5.7c16.5,6.9,28.5,2,35.7-15c12.4,0,25-0.9,37.4,0.3c9.1,0.8,15.6,7.2,17,16.6c1.1,7.4,1.2,15.1,0.6,22.6
                                    c-0.8,9.1-6.6,13.4-16.8,13.5c-18.8,0.1-37.7,0.1-56.5,0.1c-20.2,0-40.4,0-60.6,0c-1.1,0-2.3,0-3.4-0.1
                                    c-7.4-0.7-12.1-5.2-12-11.6c0-6.7,5-11.3,12.8-11.3c30.3-0.1,60.6-0.1,90.9-0.1c4,0,8.1,0,12.1,0
                                    C266.3,199.4,266.3,199.1,266.3,198.8z"></path>
                                <path fill="#F6A40F" d="M144.2,194.6c-6.6,8.9-8.3,17.5-4.1,27.4c-2.5,0.2-4.5,0.4-6.4,0.4c-29.8,0-59.6,0-89.4,0
                                    c-10.7,0-16.8-5-16.7-13.7c0-8.7,6.3-14,16.7-14c30.7,0,61.4,0,92.2,0C138.6,194.6,140.8,194.6,144.2,194.6z"></path>
                                <path fill="#F6A40F" d="M220.4,49.6c0.1,14.1-11.1,25.5-25.1,25.5c-14.4,0-26.1-11.5-25.9-25.6c0.2-13.9,11.5-25.1,25.7-25.3
                                    C208.8,24.1,220.3,35.6,220.4,49.6z"></path>
                                <path fill="#F6A40F" d="M329,163.7c13.9,0,24.4,10.4,24.4,24.3c0,13.5-10.4,24.1-23.8,24.3c-13.8,0.1-24.7-10.4-24.8-24
                                    C304.6,174.6,315.3,163.7,329,163.7z"></path>
                            </g>
                            <path fill="#F6A40F" d="M311.3,196.2H291c-2.4,0-4.4-2-4.4-4.4v-7.6c0-2.4,2-4.4,4.4-4.4h20.2c2.4,0,4.4,2,4.4,4.4v7.6
                                C315.7,194.2,313.7,196.2,311.3,196.2z"></path>
                        </g>
                    </g>
                    </svg>